# xmcd CD database file
# Copyright (C) 1997 Ti Kan
# 
# Track frame offsets:
#     215
#     15582
#     30900
#     44567
#     57697
#     72267
#     87720
#     102720
#     115915
#     131337
#     145815
#     161617
# 
# Disc length: 2336 seconds
# 
# Revision: 1
# Processed by: cddbd v1.4b41PL1 Copyright (c) Steve Scherf et al.
# Submitted via: DiscPlay 4.0.4
# 
DISCID=ab091e0c
DTITLE=Charley Pride - Amy's Eyes
DYEAR=1900
DGENRE=
TTITLE0=White Houses
TTITLE1=Moody Woman
TTITLE2=Amy's Eyes
TTITLE3=After Me, After You
TTITLE4=I Made Love To You In My Mind
TTITLE5=Whole Lotta Love On The Line
TTITLE6=Nickles And Dimes And Love
TTITLE7=Look Who's Looking
TTITLE8=I Wrote The Songs That Broke Her Heart
TTITLE9=You Hold My World Together
TTITLE10=The Right One
TTITLE11=Plenty Good Lovin'
EXTD=
EXTT0=
EXTT1=
EXTT2=
EXTT3=
EXTT4=
EXTT5=
EXTT6=
EXTT7=
EXTT8=
EXTT9=
EXTT10=
EXTT11=
PLAYORDER=
